<?xml version="1.0" standalone="no"?>
<!DOCTYPE svg PUBLIC "-//W3C//DTD SVG 20010904//EN"
 "http://www.w3.org/TR/2001/REC-SVG-20010904/DTD/svg10.dtd">
<svg version="1.0" xmlns="http://www.w3.org/2000/svg"
 width="398.000000pt" height="398.000000pt" viewBox="0 0 398.000000 398.000000"
 preserveAspectRatio="xMidYMid meet">
<metadata>
Created by potrace 1.11, written by Peter Selinger 2001-2013
</metadata>
<g transform="translate(0.000000,398.000000) scale(0.100000,-0.100000)"
fill="#000000" stroke="none">
<path d="M2379 2916 c28 -30 51 -56 51 -58 0 -2 -35 13 -77 34 -158 77 -284
85 -426 28 -100 -40 -189 -50 -372 -43 -233 9 -290 -11 -456 -158 -57 -50
-125 -102 -151 -115 -60 -30 -104 -90 -117 -157 -5 -29 -14 -122 -20 -207 -11
-167 -39 -340 -71 -441 -22 -71 -26 -166 -9 -237 18 -78 96 -228 143 -277 38
-40 45 -54 55 -116 6 -39 23 -94 38 -122 53 -106 208 -237 396 -332 57 -30 75
-44 71 -55 -4 -8 -11 -33 -17 -56 l-10 -41 -200 -47 c-111 -26 -203 -49 -205
-51 -10 -10 16 -26 140 -88 132 -66 324 -136 448 -163 36 -8 115 -19 175 -25
61 -5 119 -12 129 -15 18 -6 19 -2 12 62 -9 93 -35 149 -72 158 -53 14 -153
69 -201 112 l-48 42 45 12 c53 14 96 15 285 6 103 -6 161 -4 218 7 43 7 80 10
83 5 3 -4 15 -8 27 -8 12 0 40 -5 62 -11 l40 -11 -35 -30 c-39 -33 -185 -122
-217 -132 -27 -9 -49 -56 -67 -140 -13 -61 -9 -85 12 -72 5 3 60 10 123 16
149 14 187 23 349 76 128 43 388 162 410 189 8 10 4 14 -17 19 -16 3 -107 27
-203 52 l-176 46 -13 55 c-7 30 -11 56 -9 58 2 1 32 17 68 35 250 124 411 295
427 455 6 54 11 64 53 106 53 53 121 181 145 274 19 77 19 154 -1 205 -15 37
-15 42 0 58 15 17 13 21 -30 63 -49 47 -90 109 -109 166 -10 30 -9 45 7 97 28
90 35 230 14 292 -30 91 -114 167 -231 210 -39 15 -59 27 -56 36 2 7 6 27 9
45 6 42 -30 66 -90 61 -40 -3 -46 0 -82 40 -22 24 -59 55 -83 69 -38 22 -182
73 -207 73 -5 0 14 -24 43 -54z m-821 -458 c26 -70 42 -177 42 -282 l0 -86
-59 0 c-86 0 -206 -19 -266 -41 -29 -11 -68 -36 -90 -59 -27 -28 -48 -40 -67
-40 l-28 0 1 103 c1 56 4 113 8 127 7 25 8 24 25 -12 28 -58 42 -65 50 -24 10
54 51 93 146 141 97 49 156 106 187 180 10 25 21 45 25 45 4 0 15 -24 26 -52z
m266 -22 c33 -21 102 -59 155 -83 130 -60 187 -117 216 -216 12 -41 12 -42
-16 -59 -17 -10 -29 -26 -29 -38 0 -27 43 -70 69 -70 11 0 23 -4 26 -10 3 -6
-5 -10 -19 -10 -52 0 -131 -39 -181 -90 -68 -69 -97 -69 -168 3 -52 52 -125
87 -183 87 -13 0 -24 5 -24 10 0 6 13 10 29 10 54 0 94 58 67 95 -10 14 -31
21 -70 25 l-55 5 34 54 c53 84 70 143 70 248 0 58 4 89 10 85 6 -4 37 -24 69
-46z m770 -87 c43 -38 76 -99 98 -182 l13 -48 57 40 c35 24 60 36 64 30 3 -6
3 -62 -1 -125 -6 -102 -9 -114 -26 -114 -10 0 -33 15 -50 34 -62 68 -156 95
-371 105 l-136 6 26 44 c20 34 27 40 32 27 5 -15 13 -12 60 23 80 60 110 110
110 183 l0 59 41 -23 c23 -13 60 -39 83 -59z m-1121 -376 c-23 -2 -64 -2 -90
0 -26 2 -7 3 42 3 50 0 71 -1 48 -3z m1080 0 c-24 -2 -62 -2 -85 0 -24 2 -5 4
42 4 47 0 66 -2 43 -4z m-1135 -110 c-10 -2 -26 -2 -35 0 -10 3 -2 5 17 5 19
0 27 -2 18 -5z m1130 0 c-10 -2 -28 -2 -40 0 -13 2 -5 4 17 4 22 1 32 -1 23
-4z m-1244 -17 c-130 -32 -189 -100 -182 -212 9 -139 140 -240 328 -251 114
-7 185 7 284 55 5 3 0 -9 -10 -27 -32 -55 -71 -66 -242 -69 -181 -4 -249 7
-297 49 -41 36 -51 64 -70 199 -34 244 -20 267 175 268 l65 0 -51 -12z m339 7
c-7 -2 -19 -2 -25 0 -7 3 -2 5 12 5 14 0 19 -2 13 -5z m635 -7 c-26 -7 -65
-25 -87 -39 -38 -26 -41 -26 -41 -7 0 23 25 38 83 50 66 13 97 10 45 -4z m504
-5 c38 -14 50 -61 39 -147 -4 -38 -9 -55 -10 -37 -3 93 -63 154 -183 188 l-53
15 90 -4 c50 -2 102 -9 117 -15z m-1053 -2 c28 -10 59 -44 48 -55 -2 -2 -15 4
-28 15 -14 11 -41 26 -60 34 -26 12 -29 16 -13 16 12 1 35 -4 53 -10z m-264
-103 c20 -57 -68 -94 -106 -45 l-19 24 0 -28 c0 -43 28 -87 65 -103 93 -39
195 8 195 88 0 49 -13 73 -48 93 -26 16 -25 16 41 11 81 -6 130 -28 163 -72
l25 -32 -15 -86 c-8 -48 -18 -91 -21 -96 -14 -22 -94 -59 -153 -71 -82 -15
-202 -7 -274 21 -100 37 -181 138 -164 205 8 32 52 82 88 101 17 9 62 21 102
28 81 15 104 7 121 -38z m960 29 c14 -13 25 -31 25 -38 0 -27 -35 -59 -65 -59
-18 0 -36 8 -47 22 l-18 22 0 -34 c0 -63 54 -108 130 -108 77 0 130 45 130
110 -1 38 -11 56 -50 84 -25 18 -25 18 40 11 103 -11 163 -44 197 -109 42 -82
-60 -204 -202 -241 -132 -34 -301 -8 -372 57 -16 15 -24 41 -34 103 -11 79
-11 84 9 113 32 44 67 63 146 77 39 7 75 14 79 14 4 1 19 -10 32 -24z m724
-38 c24 -68 8 -151 -54 -282 -24 -49 -55 -101 -69 -114 l-26 -24 0 157 c0 112
5 176 16 219 9 34 17 64 19 67 2 3 26 6 53 6 48 2 51 0 61 -29z m-2229 -240
l0 -170 -21 19 c-26 24 -104 184 -119 244 -6 25 -10 66 -8 90 3 43 4 45 33 42
17 -2 42 1 55 6 22 9 27 6 43 -26 14 -30 17 -64 17 -205z m1104 179 c15 -14
28 -45 35 -82 24 -118 62 -236 88 -270 14 -19 47 -47 72 -62 41 -24 59 -27
169 -32 73 -3 122 -9 121 -15 -1 -5 21 -14 47 -18 27 -5 53 -12 57 -16 10 -10
-144 -57 -271 -81 -197 -38 -489 -44 -670 -15 -193 32 -391 83 -370 96 7 5 36
11 65 15 35 4 53 11 53 20 0 11 21 14 96 14 121 0 172 13 224 57 56 48 77 94
110 242 24 104 33 130 55 148 35 31 88 31 119 -1z m-989 -135 c9 -63 23 -131
31 -150 32 -76 115 -137 201 -147 76 -9 82 -15 32 -30 -80 -24 -117 -81 -88
-135 14 -27 31 -13 25 19 -11 52 2 55 100 27 401 -116 799 -123 1171 -19 186
53 171 52 175 13 4 -46 22 -43 26 3 4 49 -30 85 -88 94 -47 8 -36 24 16 24 93
0 197 75 227 163 9 26 21 93 28 150 12 102 28 142 50 120 7 -7 9 -96 7 -274
-3 -264 -3 -264 -30 -314 -58 -111 -181 -214 -364 -307 -400 -204 -757 -210
-1149 -19 -132 65 -215 120 -293 195 -130 124 -142 164 -142 476 0 163 3 229
12 238 23 23 37 -11 53 -127z m1765 -7 c-14 -87 -35 -123 -91 -154 -42 -24
-53 -25 -224 -28 -172 -3 -182 -2 -225 20 -26 13 -53 37 -64 58 l-20 34 35
-22 c75 -46 230 -64 341 -41 107 23 204 91 234 163 10 25 20 43 22 42 1 -2 -2
-34 -8 -72z"/>
</g>
</svg>
