<?xml version="1.0" ?><svg style="enable-background:new 0 0 512 512;" version="1.1" viewBox="0 0 512 512" xml:space="preserve" xmlns="http://www.w3.org/2000/svg" xmlns:xlink="http://www.w3.org/1999/xlink"><g id="_x31_75_x2C__Search_x2C__Magnify_x2C__Tool_x2C__Max"><g id="XMLID_1_"><path d="M434.995,444.995c-2.56,0-5.118-0.977-7.071-2.929l-84.853-84.853    c-3.905-3.905-3.905-10.237,0-14.143c3.906-3.904,10.236-3.904,14.143,0l84.853,84.853c3.905,3.905,3.905,10.237,0,14.143    C440.113,444.019,437.555,444.995,434.995,444.995z" id="XMLID_8645_" style="fill:#F05026;"/></g><g id="XMLID_21181_"><path d="M237.005,406.926c-43.534,0-87.067-16.571-120.208-49.712    c-66.283-66.283-66.283-174.134,0-240.417c66.283-66.281,174.133-66.283,240.417,0c0,0,0,0,0,0    c66.282,66.283,66.282,174.133,0,240.417C324.072,390.354,280.538,406.926,237.005,406.926z M237.005,87.076    c-38.412,0-76.824,14.621-106.066,43.864c-58.485,58.485-58.485,153.646,0,212.132c58.484,58.485,153.647,58.485,212.132,0    s58.484-153.647,0-212.132C313.829,101.697,275.417,87.076,237.005,87.076z" id="XMLID_8642_" style="fill:#3E3C3C;"/></g></g><g id="Layer_1"/></svg>