<?xml version="1.0" encoding="UTF-8" standalone="no"?><!DOCTYPE svg PUBLIC "-//W3C//DTD SVG 1.1//EN" "http://www.w3.org/Graphics/SVG/1.1/DTD/svg11.dtd"><svg width="100%" height="100%" viewBox="0 0 792 612" version="1.1" xmlns="http://www.w3.org/2000/svg" xmlns:xlink="http://www.w3.org/1999/xlink" xml:space="preserve" xmlns:serif="http://www.serif.com/" style="fill-rule:evenodd;clip-rule:evenodd;stroke-linejoin:round;stroke-miterlimit:2;"><rect x="0" y="0" width="792" height="456" style="fill:url(#_Linear1);"/><circle cx="595.7" cy="185.3" r="55.7" style="fill:url(#_Radial2);"/><g id="top-clouds"><path d="M77,253c-16.7,-3.9 -27.4,-20.3 -24.2,-36.8c3.2,-16.9 20,-28.4 37.2,-25.2c-1,-10.9 6.4,-20.8 17,-23c10.5,-2.2 21.1,3.8 24.6,14c-0.6,-3 -3.3,-18.2 6.4,-33c9.4,-14.5 23.9,-18.3 27,-19c1.9,-10.3 10.2,-18.1 20,-19c11.2,-1.1 22.1,7 24.4,19c16.3,-5.9 34.3,-0.9 44.6,12c8.7,11 10.5,26.1 5,39.5c6.7,-11 19.5,-16.8 32,-14.5c12.9,2.4 23.1,12.9 25,26c0.6,-0.3 14,-7.6 27,0c9.2,5.4 14.4,16.1 13,27c4.9,-6.7 13.2,-8.9 19,-6c5.9,3 8.4,12.3 6.6,18.8c-7.2,25.2 -83.6,28.2 -83.6,28.2c0,0 -48.4,2.3 -99,2c-47.8,-0.3 -71.7,-2.8 -82,-4c-16.5,-1.9 -30.3,-4.2 -40,-6Z" style="fill:url(#_Linear3);fill-rule:nonzero;"/><path d="M572.2,100.9c-10.9,-1.9 -17.8,-10.2 -15.8,-18.4c2.1,-8.5 13,-14.2 24.3,-12.6c-0.6,-5.4 4.2,-10.4 11.1,-11.5c6.8,-1.1 13.8,1.9 16.1,7c-0.4,-1.5 -2.1,-9.1 4.1,-16.5c6.1,-7.2 15.6,-9.1 17.6,-9.5c1.2,-5.2 6.7,-9 13,-9.5c7.3,-0.5 14.4,3.5 15.9,9.5c10.6,-2.9 22.4,-0.5 29.1,6c5.7,5.5 6.9,13.1 3.3,19.7c4.3,-5.5 12.7,-8.4 20.9,-7.2c8.4,1.2 15,6.4 16.3,13c0.4,-0.2 9.1,-3.8 17.6,0c6,2.7 9.4,8 8.5,13.5c3.2,-3.4 8.6,-4.5 12.4,-3c3.9,1.5 5.5,6.1 4.3,9.4c-4.7,12.6 -54.5,14.1 -54.5,14.1c0,0 -31.6,1.2 -64.6,1c-31.2,-0.2 -46.8,-1.4 -53.5,-2c-10.8,-0.9 -19.8,-2.1 -26.1,-3Z" style="fill:url(#_Linear4);fill-rule:nonzero;"/></g><path id="single-cloud" d="M618.6,117.6c7.4,-1.7 12.2,-8.8 10.8,-16c-1.4,-7.4 -8.9,-12.3 -16.6,-10.9c0.4,-4.7 -2.9,-9 -7.6,-10c-4.7,-0.9 -9.4,1.7 -11,6.1c0.3,-1.3 1.5,-7.9 -2.8,-14.3c-4.2,-6.3 -10.7,-7.9 -12,-8.3c-0.8,-4.5 -4.6,-7.8 -8.9,-8.3c-5,-0.5 -9.9,3.1 -10.9,8.3c-7.3,-2.6 -15.3,-0.4 -19.9,5.2c-3.9,4.8 -4.7,11.4 -2.2,17.2c-3,-4.8 -8.7,-7.3 -14.3,-6.3c-5.8,1 -10.3,5.6 -11.2,11.3c-0.3,-0.1 -6.2,-3.3 -12,0c-4.1,2.3 -6.4,7 -5.8,11.7c-2.2,-2.9 -5.9,-3.9 -8.5,-2.6c-2.6,1.3 -3.8,5.3 -2.9,8.2c3.2,10.9 37.3,12.2 37.3,12.2c0,0 21.6,1 44.2,0.9c21.3,-0.1 32,-1.2 36.6,-1.7c7.2,-0.9 13.3,-1.9 17.7,-2.7Z" style="fill:url(#_Linear5);fill-rule:nonzero;"/><g id="bottom-clouds"><path d="M183.5,379.9c-7.7,-1.4 -12.7,-7.5 -11.2,-13.6c1.5,-6.2 9.3,-10.5 17.3,-9.3c-0.5,-4 3,-7.7 7.9,-8.5c4.9,-0.8 9.8,1.4 11.4,5.2c-0.3,-1.1 -1.5,-6.7 2.9,-12.2c4.4,-5.3 11.1,-6.7 12.5,-7c0.9,-3.8 4.7,-6.7 9.3,-7c5.2,-0.4 10.2,2.6 11.3,7c7.6,-2.2 15.9,-0.3 20.7,4.4c4,4 4.9,9.6 2.3,14.5c3.1,-4.1 9,-6.2 14.8,-5.3c6,0.9 10.7,4.7 11.6,9.6c0.3,-0.1 6.5,-2.8 12.5,0c4.3,2 6.7,5.9 6,9.9c2.3,-2.5 6.1,-3.3 8.8,-2.2c2.7,1.1 3.9,4.5 3,6.9c-3.3,9.3 -38.7,10.4 -38.7,10.4c0,0 -22.5,0.9 -45.9,0.7c-22.2,-0.1 -33.3,-1 -38,-1.5c-7.6,-0.5 -14,-1.4 -18.5,-2Z" style="fill:url(#_Linear6);fill-rule:nonzero;"/><path d="M12,352.2c-7.7,-1.4 -12.7,-7.5 -11.2,-13.6c1.5,-6.2 9.3,-10.5 17.3,-9.3c-0.5,-4 3,-7.7 7.9,-8.5c4.9,-0.8 9.8,1.4 11.4,5.2c-0.3,-1.1 -1.5,-6.7 2.9,-12.2c4.4,-5.3 11.1,-6.7 12.5,-7c0.9,-3.8 4.7,-6.7 9.3,-7c5.2,-0.4 10.2,2.6 11.3,7c7.6,-2.2 15.9,-0.3 20.7,4.4c4,4 4.9,9.6 2.3,14.5c3.1,-4.1 9,-6.2 14.8,-5.3c6,0.9 10.7,4.7 11.6,9.6c0.3,-0.1 6.5,-2.8 12.5,0c4.3,2 6.7,5.9 6,9.9c2.3,-2.5 6.1,-3.3 8.8,-2.2c2.7,1.1 3.9,4.5 3,6.9c-3.3,9.3 -38.7,10.4 -38.7,10.4c0,0 -22.5,0.9 -45.9,0.7c-22.2,-0.1 -33.3,-1 -38,-1.5c-7.6,-0.5 -14,-1.3 -18.5,-2Z" style="fill:url(#_Linear7);fill-rule:nonzero;"/><path d="M533.5,341.3c-7.7,-1.4 -12.7,-7.5 -11.2,-13.6c1.5,-6.2 9.3,-10.5 17.3,-9.3c-0.5,-4 3,-7.7 7.9,-8.5c4.9,-0.8 9.8,1.4 11.4,5.2c-0.3,-1.1 -1.5,-6.7 2.9,-12.2c4.4,-5.3 11.1,-6.7 12.5,-7c0.9,-3.8 4.7,-6.7 9.3,-7c5.2,-0.4 10.2,2.6 11.3,7c7.6,-2.2 15.9,-0.3 20.7,4.4c4,4 4.9,9.6 2.3,14.5c3.1,-4.1 9,-6.2 14.8,-5.3c6,0.9 10.7,4.7 11.6,9.6c0.3,-0.1 6.5,-2.8 12.5,0c4.3,2 6.7,5.9 6,9.9c2.3,-2.5 6.1,-3.3 8.8,-2.2c2.7,1.1 3.9,4.5 3,6.9c-3.3,9.3 -38.7,10.4 -38.7,10.4c0,0 -22.5,0.9 -45.9,0.7c-22.2,-0.1 -33.3,-1 -38,-1.5c-7.6,-0.5 -13.9,-1.4 -18.5,-2Z" style="fill:url(#_Linear8);fill-rule:nonzero;"/><path d="M437,364.3c-11.4,-1.9 -18.7,-10.2 -16.6,-18.4c2.2,-8.5 13.7,-14.2 25.5,-12.6c-0.7,-5.4 4.4,-10.4 11.6,-11.5c7.2,-1.1 14.4,1.9 16.9,7c-0.4,-1.5 -2.2,-9.1 4.4,-16.5c6.4,-7.2 16.4,-9.1 18.5,-9.5c1.3,-5.2 7,-9 13.7,-9.5c7.7,-0.5 15.1,3.5 16.7,9.5c11.2,-2.9 23.5,-0.5 30.5,6c5.9,5.5 7.2,13.1 3.4,19.8c4.6,-5.5 13.3,-8.4 21.9,-7.2c8.9,1.2 15.8,6.4 17.1,13c0.4,-0.2 9.6,-3.8 18.5,0c6.3,2.7 9.8,8 8.9,13.5c3.4,-3.4 9.1,-4.5 13,-3c4.1,1.5 5.8,6.1 4.5,9.4c-4.9,12.6 -57.1,14.1 -57.2,14.1c0,0 -33.1,1.2 -67.7,1c-32.7,-0.2 -49.1,-1.4 -56.1,-2c-11.4,-1 -20.8,-2.2 -27.5,-3.1Z" style="fill:url(#_Linear9);fill-rule:nonzero;"/></g><path d="M792,379.6c-3.6,-4.3 -7.2,-8.5 -10.7,-12.8c0.1,1 1,12.2 -5.1,20.1c-5.5,7.1 -12.4,5.9 -13.4,5.7c-2.1,0.2 -14.7,1.3 -23.7,-11.5c-3.5,-5 -5.3,-10.5 -6.2,-14.3l-16.5,12.9c-14.4,-18.8 -33.5,-40.3 -57.6,-60.2c-16.6,-13.6 -32.3,-23.8 -46.3,-31.5c-5,12.7 -18.5,42.4 -45.2,63c-25.4,19.6 -49.2,20.5 -59.6,20.1c-3.1,-1.1 -9.1,-3.9 -14.4,-11.5c-2.5,-3.5 -4.1,-7.1 -5.1,-10c-8.4,12.9 -22.1,31 -42.2,45.8c-24,17.8 -75.9,27.1 -82.3,20.1c-8.6,-9.6 -8.3,-24.2 -8.2,-25.8c-8.2,10 -16.5,20.1 -24.7,30.1c-11.7,-13.1 -27.4,-28.2 -47.3,-41.5c-18,-12.1 -34.7,-19.6 -48.3,-24.3c-11.8,12.5 -48.1,48.7 -91.5,55.9c-19.7,3.3 -42.1,10.5 -52.4,-7.2c-8.1,-13.7 -5,-34.9 -3.1,-44.4c-15.9,11.6 -33,26.1 -50.4,44.4c-5.4,5.7 -10.6,11.5 -15.4,17.2c-5.9,-1.8 -22,-12.7 -22,-12.7l-0.4,81.1c0,0 525.6,-2.8 792,-4.2" style="fill:url(#_Linear10);fill-rule:nonzero;"/><path d="M0,392.3c4,-3.4 8,-6.9 12.1,-10.3c-0.1,0.7 -1,8.5 5,14c5.4,4.9 12.1,4.1 13,4c2.1,0.2 14.3,0.9 23,-8c3.4,-3.5 5.1,-7.3 6,-10c5.3,3 10.7,6 16,9c14,-13.2 32.6,-28.2 56,-42c16.1,-9.5 31.4,-16.6 45,-22c4.9,8.9 18,29.6 44,44c24.7,13.7 47.8,14.3 58,14c3,-0.8 8.9,-2.7 14,-8c2.4,-2.5 4,-5 5,-7c8.1,9 21.5,21.6 41,32c23.3,12.4 73.8,19 80,14c8.3,-6.7 8,-16.9 8,-18l24,21c11.4,-9.1 26.7,-19.7 46,-29c17.5,-8.5 33.7,-13.7 47,-17c11.5,8.7 46.8,34 89,39c19.2,2.3 40.9,7.4 51,-5c7.8,-9.6 4.8,-24.3 3,-31c15.5,8.1 32.1,18.2 49,31c5.3,4 10.3,8 15,12c5.8,-1.3 13.5,-3.7 21.4,-8.9c8.4,-5.5 20.5,-10.2 20.6,-10.4l0,67.3l-792.1,-3" style="fill:url(#_Linear11);fill-rule:nonzero;"/><path d="M0.5,417.9c19.2,-8.6 43.3,-17 71.5,-21.6c80.5,-13.2 135.5,14 225,35.7c42.3,10.2 100.2,15.8 216,27c123,11.9 279,20.6 279,20.6l0,38.4c0,0 -779.3,34.2 -792,37.4l0.5,-137.5Z" style="fill:url(#_Linear12);fill-rule:nonzero;"/><path d="M0.5,452.9c69.9,20.9 191.2,53.6 334,24.1c15.1,-3.1 9.9,-2.6 37,-9c131.5,-31.2 420.5,-20.3 420.5,-20.3c0,0 0,96.5 0,95.8c0,-0.7 -537.3,103.9 -790.3,-44.6c-1.6,-33.2 -0.2,-3.2 -1,-39.9c-0.1,-1.9 -0.1,-3.9 -0.2,-6.1Z" style="fill:url(#_Linear13);fill-rule:nonzero;"/><path d="M792,500.7c-116.6,14 -248.1,23.5 -392.2,23.6c-146.7,0.1 -280.5,-9.4 -398.8,-23.6l0,111.4l791,0l0,-111.4Z" style="fill:url(#_Linear14);fill-rule:nonzero;"/><defs><linearGradient id="_Linear1" x1="0" y1="0" x2="1" y2="0" gradientUnits="userSpaceOnUse" gradientTransform="matrix(2.79218e-14,455.997,-455.997,2.79218e-14,396,-0.027313)"><stop offset="0" style="stop-color:#0088bc;stop-opacity:1"/><stop offset="0.99" style="stop-color:#d5eef1;stop-opacity:1"/><stop offset="1" style="stop-color:#d5eef1;stop-opacity:1"/></linearGradient><radialGradient id="_Radial2" cx="0" cy="0" r="1" gradientUnits="userSpaceOnUse" gradientTransform="matrix(55.708,0,0,55.708,595.71,185.29)"><stop offset="0" style="stop-color:#f4f3b0;stop-opacity:1"/><stop offset="0.01" style="stop-color:#f4f3b0;stop-opacity:1"/><stop offset="1" style="stop-color:#f9ed32;stop-opacity:1"/></radialGradient><linearGradient id="_Linear3" x1="0" y1="0" x2="1" y2="0" gradientUnits="userSpaceOnUse" gradientTransform="matrix(9.31466e-15,152.12,-152.12,9.31466e-15,217.2,110.88)"><stop offset="0" style="stop-color:#fff;stop-opacity:0.68"/><stop offset="0.99" style="stop-color:#dbeff9;stop-opacity:0.68"/><stop offset="1" style="stop-color:#dbeff9;stop-opacity:0.68"/></linearGradient><linearGradient id="_Linear4" x1="0" y1="0" x2="1" y2="0" gradientUnits="userSpaceOnUse" gradientTransform="matrix(4.65752e-15,76.063,-76.063,4.65752e-15,663.58,29.877)"><stop offset="0" style="stop-color:#fff;stop-opacity:0.82"/><stop offset="0.99" style="stop-color:#dbeff9;stop-opacity:0.82"/><stop offset="1" style="stop-color:#dbeff9;stop-opacity:0.82"/></linearGradient><linearGradient id="_Linear5" x1="0" y1="0" x2="1" y2="0" gradientUnits="userSpaceOnUse" gradientTransform="matrix(4.04703e-15,66.093,-66.093,4.04703e-15,556.005,55.877)"><stop offset="0" style="stop-color:#fff;stop-opacity:0.92"/><stop offset="0.99" style="stop-color:#dbeff9;stop-opacity:0.92"/><stop offset="1" style="stop-color:#dbeff9;stop-opacity:0.92"/></linearGradient><linearGradient id="_Linear6" x1="0" y1="0" x2="1" y2="0" gradientUnits="userSpaceOnUse" gradientTransform="matrix(3.43085e-15,56.03,-56.03,3.43085e-15,248.47,327.54)"><stop offset="0" style="stop-color:#fff;stop-opacity:0.79"/><stop offset="0.99" style="stop-color:#dbeff9;stop-opacity:0.79"/><stop offset="1" style="stop-color:#dbeff9;stop-opacity:0.79"/></linearGradient><linearGradient id="_Linear7" x1="0" y1="0" x2="1" y2="0" gradientUnits="userSpaceOnUse" gradientTransform="matrix(3.43085e-15,56.03,-56.03,3.43085e-15,77,299.9)"><stop offset="0" style="stop-color:#fff;stop-opacity:0.79"/><stop offset="0.99" style="stop-color:#dbeff9;stop-opacity:0.79"/><stop offset="1" style="stop-color:#dbeff9;stop-opacity:0.79"/></linearGradient><linearGradient id="_Linear8" x1="0" y1="0" x2="1" y2="0" gradientUnits="userSpaceOnUse" gradientTransform="matrix(3.43085e-15,56.03,-56.03,3.43085e-15,598.53,288.94)"><stop offset="0" style="stop-color:#fff;stop-opacity:0.79"/><stop offset="0.99" style="stop-color:#dbeff9;stop-opacity:0.79"/><stop offset="1" style="stop-color:#dbeff9;stop-opacity:0.79"/></linearGradient><linearGradient id="_Linear9" x1="0" y1="0" x2="1" y2="0" gradientUnits="userSpaceOnUse" gradientTransform="matrix(4.65733e-15,76.06,-76.06,4.65733e-15,532.94,293.3)"><stop offset="0" style="stop-color:#fff;stop-opacity:0.79"/><stop offset="0.99" style="stop-color:#dbeff9;stop-opacity:0.79"/><stop offset="1" style="stop-color:#dbeff9;stop-opacity:0.79"/></linearGradient><linearGradient id="_Linear10" x1="0" y1="0" x2="1" y2="0" gradientUnits="userSpaceOnUse" gradientTransform="matrix(1.22697e-14,200.38,-200.38,1.22697e-14,396,287.97)"><stop offset="0" style="stop-color:#add1ef;stop-opacity:1"/><stop offset="0.99" style="stop-color:#4db3e6;stop-opacity:1"/><stop offset="1" style="stop-color:#4db3e6;stop-opacity:1"/></linearGradient><linearGradient id="_Linear11" x1="0" y1="0" x2="1" y2="0" gradientUnits="userSpaceOnUse" gradientTransform="matrix(8.57192e-15,139.99,-139.99,8.57192e-15,396,326.97)"><stop offset="0" style="stop-color:#bacfeb;stop-opacity:1"/><stop offset="1" style="stop-color:#5783c3;stop-opacity:1"/></linearGradient><linearGradient id="_Linear12" x1="0" y1="0" x2="1" y2="0" gradientUnits="userSpaceOnUse" gradientTransform="matrix(9.95148e-15,162.52,-162.52,9.95148e-15,396,392.83)"><stop offset="0" style="stop-color:#88c03f;stop-opacity:1"/><stop offset="0.97" style="stop-color:#5c892a;stop-opacity:1"/><stop offset="1" style="stop-color:#5c892a;stop-opacity:1"/></linearGradient><linearGradient id="_Linear13" x1="0" y1="0" x2="1" y2="0" gradientUnits="userSpaceOnUse" gradientTransform="matrix(8.12676e-15,132.72,-132.72,8.12676e-15,396.26,445.86)"><stop offset="0" style="stop-color:#88c03f;stop-opacity:1"/><stop offset="1" style="stop-color:#48701f;stop-opacity:1"/><stop offset="1" style="stop-color:#48701f;stop-opacity:1"/></linearGradient><linearGradient id="_Linear14" x1="0" y1="0" x2="1" y2="0" gradientUnits="userSpaceOnUse" gradientTransform="matrix(6.81822e-15,111.35,-111.35,6.81822e-15,396.5,500.68)"><stop offset="0" style="stop-color:#8dc63f;stop-opacity:1"/><stop offset="0.97" style="stop-color:#61823e;stop-opacity:1"/><stop offset="1" style="stop-color:#61823e;stop-opacity:1"/></linearGradient></defs></svg>