<?xml version="1.0" encoding="UTF-8" standalone="no"?><!DOCTYPE svg PUBLIC "-//W3C//DTD SVG 1.1//EN" "http://www.w3.org/Graphics/SVG/1.1/DTD/svg11.dtd"><svg width="100%" height="100%" viewBox="0 0 360 120" version="1.1" xmlns="http://www.w3.org/2000/svg" xmlns:xlink="http://www.w3.org/1999/xlink" xml:space="preserve" xmlns:serif="http://www.serif.com/" style="fill-rule:evenodd;clip-rule:evenodd;stroke-linejoin:round;stroke-miterlimit:2;"><path d="M0,27.658l24.911,0l0,43.016l3.488,0c0.056,-1.805 0.07,-3.584 0.042,-5.337c-0.028,-1.752 -0.042,-3.531 -0.042,-5.337l20.928,0l0,54.009l0.332,0l-0.083,-61.816l10.132,0l0,36.803c1.287,0.106 2.588,0.133 3.903,0.08c1.315,-0.053 2.616,-0.08 3.903,-0.08l0,25.013l2.491,0l0,-86.351l24.416,0l0,-21.667l-94.421,0l0,-5.991l360,0l0,28.237c-0.146,-0.842 -0.311,-1.672 -0.496,-2.491c-0.886,-3.93 -2.09,-7.355 -3.612,-10.276c-1.523,-2.921 -3.308,-5.231 -5.357,-6.93c-2.048,-1.7 -4.235,-2.549 -6.561,-2.549l-81.302,0c-2.325,0 -4.526,0.85 -6.602,2.551c-2.076,1.701 -3.875,4.014 -5.398,6.939c-1.522,2.925 -2.726,6.355 -3.612,10.289c-0.886,3.934 -1.329,8.134 -1.329,12.6l0,43.228c0,5.211 0.567,9.996 1.702,14.356c1.135,4.36 2.672,8.028 4.609,11.006l0,-35.432c0,-0.425 0.07,-0.797 0.208,-1.116c0.139,-0.32 0.263,-0.692 0.374,-1.117c0.886,-3.405 1.785,-6.784 2.699,-10.135c0.913,-3.352 1.841,-6.73 2.782,-10.136l0,-10.532l0.332,0l0,9.878c-0.055,0.531 0.015,1.009 0.211,1.434c0.196,0.424 0.35,0.902 0.462,1.433c0.842,3.187 1.698,6.347 2.568,9.48c0.87,3.133 1.725,6.293 2.567,9.479c0.28,0.532 0.393,1.169 0.337,1.912l0,20.951c0,6.957 -0.027,13.94 -0.083,20.95l4.319,0l0,-42.379c4.318,-0.212 8.692,-0.212 13.121,0l0,16.57l7.225,0l0,25.809l11.543,0l0,-11.63l-0.996,0c0.221,-0.637 0.401,-1.275 0.54,-1.912c0.138,-0.637 0.318,-1.274 0.54,-1.912l10.048,0c0.166,0.638 0.346,1.275 0.54,1.912c0.194,0.638 0.346,1.275 0.457,1.912l-0.914,0l0,11.63l10.298,0l0,-24.057l10.63,0l0,24.057l1.744,0c0,-1.15 0.014,-2.248 0.041,-3.293c0.028,-1.046 0.014,-2.143 -0.041,-3.293c-0.111,-0.107 -0.277,-0.107 -0.499,-0.002c-0.221,0.106 -0.276,-0.106 -0.166,-0.636c1.108,-2.124 2.16,-4.301 3.156,-6.532c0.997,-2.23 2.021,-4.408 3.073,-6.532l0.083,-0.159c0.996,2.443 2.048,4.753 3.156,6.93c1.107,2.177 2.159,4.488 3.155,6.931l-0.747,-0.105l0,6.691c0.387,-0.106 0.775,-0.185 1.163,-0.239c0.387,-0.053 0.775,-0.132 1.162,-0.239l0,-23.26c0.166,-0.213 0.36,-0.319 0.582,-0.319c0.221,0 0.442,-0.159 0.664,-0.478c0.886,-0.425 1.758,-0.85 2.616,-1.274c0.858,-0.425 1.73,-0.903 2.616,-1.434l0.415,0l0,15.294l2.99,0c1.218,-2.761 2.159,-5.894 2.823,-9.399c0.057,-0.301 0.112,-0.604 0.164,-0.908l0,28.247l-360,0l0,-92.342Zm281.607,69.304l0,-25.172l-12.457,0l0,42.219l3.737,0l0,-18.003l0.955,0c-0.053,0.638 0.014,1.009 0.199,1.116c0.186,0.106 0.438,0.053 0.756,-0.16c-0.055,-0.956 0.277,-1.274 0.997,-0.956c0,0.638 0.083,1.009 0.249,1.116c0.166,0.106 0.415,0.053 0.747,-0.16c-0.055,-0.956 0.277,-1.274 0.997,-0.956c-0.056,0.638 0.014,1.009 0.207,1.116c0.194,0.106 0.457,0.053 0.789,-0.16l0,-1.274l1.163,0l0,1.274l1.661,0Zm-63.364,-7.488c0.996,-1.168 1.993,-2.283 2.989,-3.346c0.997,-1.062 1.993,-2.124 2.99,-3.186c1.716,1.806 3.46,3.718 5.232,5.736l12.955,-82.528l-45.094,0l-11.045,70.26l-10.962,-70.26l-11.793,0l-10.962,70.26l-11.045,-70.26l-45.011,0l16.859,107.859l5.979,0l0,-38.396c0.221,-0.212 0.443,-0.371 0.664,-0.478c0.222,-0.106 0.443,-0.265 0.665,-0.478c0.553,-0.424 1.093,-0.849 1.619,-1.274c0.526,-0.425 1.066,-0.797 1.619,-1.115c0.277,-0.213 0.512,-0.266 0.706,-0.16c0.194,0.107 0.429,0.213 0.706,0.319c0.941,0.212 1.883,0.478 2.824,0.797c0.941,0.318 1.882,0.584 2.823,0.796c0.443,0.213 0.9,0.372 1.371,0.478c0.47,0.106 0.927,0.319 1.37,0.637c0.332,0 0.65,0.027 0.955,0.08c0.304,0.053 0.595,0.133 0.872,0.239l0,8.444c0.166,0 0.387,-0.159 0.664,-0.478c0.72,-0.425 1.523,-0.372 2.409,0.159c1.107,-0.106 2.2,0.08 3.28,0.558c1.079,0.478 2.173,0.717 3.28,0.717c0.554,0.212 1.094,0.345 1.62,0.398c0.526,0.053 1.065,0.133 1.619,0.239l0,28.518l10.049,0l10.962,-70.419l11.045,70.419l8.304,0c0.056,-8.391 0.056,-16.834 0,-25.331l-0.83,-0.16l0,-4.779l19.765,0l0,4.461c-0.332,-0.319 -0.554,-0.372 -0.665,-0.16c-0.11,0.213 -0.166,0.478 -0.166,0.797c0,0.319 0.014,0.69 0.042,1.115c0.028,0.425 0.014,0.744 -0.042,0.956l0,23.101l4.402,0c0,-2.443 0.014,-4.885 0.041,-7.328c0.028,-2.443 0.014,-4.886 -0.041,-7.329l-0.415,-0.159l0,-2.549l8.47,0l0,-7.17l-1.079,0Zm-88.86,24.535l0,-1.433l-1.577,0l0,1.433l1.577,0Zm201.47,0l0,-2.071l-2.242,0l0,2.071l2.242,0Zm-45.177,0l0,-16.728l-12.623,0l0,16.728l12.623,0Zm57.219,0l0,-5.735l-1.495,0c-0.055,0.956 -0.069,1.912 -0.041,2.868c0.027,0.956 0.041,1.911 0.041,2.867l1.495,0Zm-215.837,0l0,-1.593c-0.277,-0.106 -0.567,-0.159 -0.872,-0.159l-0.872,0l0,1.752l1.744,0Zm197.567,0l0,-2.071l-2.076,0l0,2.071l2.076,0Zm-17.523,0l0,-5.098c-0.886,-0.212 -1.744,-0.212 -2.574,0l0,5.098l2.574,0Zm-175.227,0l0,-1.433l-1.744,0l0,1.433l1.744,0Zm63.032,0l0,-5.098l-3.405,0l0,5.098l3.405,0Zm133.206,0l0,-2.071l-1.163,0l0,2.071l1.163,0Zm-128.722,0l0,-5.098l-3.239,0c-0.055,0.85 -0.069,1.7 -0.041,2.549c0.028,0.85 0.041,1.7 0.041,2.549l3.239,0Zm4.568,0l0,-5.098l-3.239,0l0,5.098l3.239,0Zm21.509,0l0,-6.054c-0.775,-0.106 -1.523,-0.106 -2.243,0l0,6.054l2.243,0Zm111.531,0l0,-6.054l-1.495,0l0,6.054l1.495,0Zm-288.087,0l0,-53.372l-20.347,0l0,24.217l2.907,0c0,-0.213 0.014,-0.531 0.042,-0.956c0.027,-0.425 0.041,-0.744 0.041,-0.956c0.166,0.106 0.388,0.106 0.664,0c0.277,-0.106 0.526,-0.133 0.748,-0.08c0.221,0.053 0.374,0.213 0.457,0.478c0.083,0.266 0.041,0.77 -0.125,1.514l1.163,0c0.387,0 0.443,-0.638 0.166,-1.912l1.827,0c-0.277,1.168 -0.18,1.779 0.291,1.832c0.47,0.053 0.844,0.08 1.121,0.08c0,-0.213 0.013,-0.531 0.041,-0.956c0.028,-0.425 0.042,-0.744 0.042,-0.956c0.166,0.106 0.387,0.106 0.664,0c0.277,-0.106 0.526,-0.133 0.747,-0.08c0.222,0.053 0.374,0.213 0.457,0.478c0.083,0.266 0.042,0.77 -0.124,1.514l1.162,0c0.388,0 0.443,-0.638 0.166,-1.912l1.91,0c0.056,1.593 0.056,3.187 0,4.78c-0.055,1.593 0,3.133 0.167,4.62c-0.111,3.611 -0.167,7.222 -0.167,10.834l0,10.833l1.412,0c0,-0.849 -0.014,-1.673 -0.041,-2.469c-0.028,-0.797 -0.014,-1.62 0.041,-2.469l1.744,0c0,0.849 0.014,1.672 0.042,2.469c0.027,0.797 0.014,1.62 -0.042,2.469l2.824,0Zm-6.312,0l0,-28.836l-17.689,0l0,28.836l17.689,0Zm297.471,0l0,-6.054l-1.744,0l0,6.054l1.744,0Zm-52.568,-0.318l0,-2.549l-1.661,0l0,2.549l1.661,0Zm-3.654,-3.505l0,3.505l-1.079,0l0,-3.505l1.079,0Zm-1.91,0l0,3.505l-1.163,0l0,-3.505l1.163,0Zm-1.993,0l0,3.505l-1.163,0l0,-3.505l1.163,0Zm-3.903,0l0,3.505l-1.412,0l0,-3.505l1.412,0Zm1.91,0l0,3.505l-1.246,0l0,-3.505l1.246,0Zm30.395,-0.319c0.277,0 0.567,-0.026 0.872,-0.08c0.304,-0.053 0.595,-0.026 0.872,0.08l0,3.505c-0.277,0 -0.568,0.027 -0.872,0.08c-0.305,0.053 -0.595,0.026 -0.872,-0.08l0,-3.505Zm-5.066,3.505l0,-3.505l-1.827,0l0,3.505l1.827,0Zm-160.279,-1.912c0.554,-0.106 1.135,-0.106 1.744,0l0,1.753c-0.277,0 -0.568,0.026 -0.872,0.079c-0.305,0.054 -0.595,0.027 -0.872,-0.079l0,-1.753Zm-3.073,1.593l0,-1.911l-1.744,0l0,1.911l1.744,0Zm-81.302,-0.477l0,-2.231l-5.232,0l0,2.231l5.232,0Zm292.488,-1.594c-0.221,0.213 -0.442,0.399 -0.664,0.558c-0.221,0.159 -0.443,0.345 -0.664,0.558l0,-2.55l0.664,0c0.222,0 0.443,0.054 0.664,0.16l0,1.274Zm-311.422,-4.779c0,0.85 0.013,1.726 0.041,2.629c0.028,0.902 0.014,1.832 -0.041,2.788l-1.744,0c0,-0.956 -0.014,-1.886 -0.042,-2.788c-0.028,-0.903 -0.014,-1.779 0.042,-2.629l1.744,0Zm-9.634,0l0,5.417l-1.827,0l0,-5.417l1.827,0Zm100.071,2.549l1.744,0l0,2.549c-0.277,0 -0.568,0.027 -0.872,0.08c-0.305,0.053 -0.595,0.026 -0.872,-0.08l0,-2.549Zm-96.832,-2.868l0,5.417l-1.744,0c0,-0.956 -0.014,-1.885 -0.041,-2.788c-0.028,-0.903 -0.014,-1.779 0.041,-2.629l1.744,0Zm-6.394,0c0,0.85 0.013,1.753 0.041,2.709c0.028,0.955 0.014,1.858 -0.041,2.708l-1.744,0c0,-0.956 -0.014,-1.885 -0.042,-2.788c-0.028,-0.903 -0.014,-1.779 0.042,-2.629l1.744,0Zm9.55,0.319l0,5.098l-1.661,0l0,-5.098l1.661,0Zm292.156,2.39c0.388,0 0.761,-0.027 1.121,-0.08c0.36,-0.053 0.734,-0.027 1.121,0.08l0,2.389c-0.387,0 -0.761,0.027 -1.121,0.08c-0.36,0.053 -0.733,0.027 -1.121,-0.08c-0.111,-0.743 -0.111,-1.54 0,-2.389Zm-0.498,2.389l0,-2.389l-1.163,0l0,2.389l1.163,0Zm-3.322,0l0,-2.389l-2.408,0c-0.111,0.849 -0.111,1.646 0,2.389l2.408,0Zm-197.733,-0.159c-0.277,0 -0.567,0.027 -0.872,0.08c-0.304,0.053 -0.595,0.026 -0.872,-0.08l0,-2.23c0.277,-0.107 0.568,-0.107 0.872,0c0.305,0.106 0.595,0.159 0.872,0.159l0,2.071Zm17.689,-0.159c-0.277,0.106 -0.54,0.106 -0.789,0c-0.249,-0.107 -0.512,-0.213 -0.789,-0.319l0,-1.593l1.578,0l0,1.912Zm2.325,0l0,-1.912l-1.744,0l0,1.912l1.744,0Zm205.373,-1.116c-0.111,0.213 -0.221,0.346 -0.332,0.399c-0.111,0.053 -0.221,0.186 -0.332,0.398l0,-0.797l0.664,0Zm-81.056,-2.867c0.231,0 0.399,0.053 0.501,0.159l0,3.346l-1.079,0l0,-3.505l0.578,0Zm-131.459,3.505l0,-1.593c-0.277,0 -0.567,-0.054 -0.872,-0.16c-0.304,-0.106 -0.595,-0.159 -0.872,-0.159l0,1.912l1.744,0Zm-85.537,-0.797l0,-2.549l-1.163,0l0,2.549l1.163,0Zm2.823,0l0,-2.23l-2.325,0l0,2.23l2.325,0Zm0.416,-2.23c0.941,-0.531 1.245,0.106 0.913,1.912c-0.941,0.531 -1.246,-0.107 -0.913,-1.912Zm-4.9,1.912l0,-1.912l-1.993,0l0,1.912l1.993,0Zm234.771,-0.478l0,-2.231l-1.661,0l0,2.231l1.661,0Zm-8.72,0l1.163,0l0,-3.187l-1.163,-0.159l0,3.346Zm1.993,0l1.163,0l0,-3.187l-1.163,-0.159l0,3.346Zm72.417,-0.16l0,-2.549l-1.412,0l0,2.549l1.412,0Zm-2.077,0c0.056,-0.499 0.07,-0.924 0.042,-1.274c-0.028,-0.351 -0.042,-0.775 -0.042,-1.275l-1.328,0c-0.056,0.5 -0.069,0.924 -0.042,1.275c0.028,0.35 0.042,0.775 0.042,1.274l1.328,0Zm-76.319,-0.159l1.08,0l0,-2.868l-1.08,-0.159l0,3.027Zm1.993,0l0.997,0l0,-2.868l-0.997,-0.159l0,3.027Zm-129.718,-0.159c-0.277,0 -0.54,-0.027 -0.789,-0.08c-0.249,-0.053 -0.512,-0.133 -0.789,-0.239l0,-1.593l1.578,0l0,1.912Zm-14.616,-2.55c0.277,0 0.568,-0.026 0.872,-0.079c0.305,-0.053 0.595,-0.027 0.872,0.079l0,2.231c-0.277,0 -0.567,0.026 -0.872,0.08c-0.304,0.053 -0.595,0.026 -0.872,-0.08l0,-2.231Zm-0.581,2.231c-0.277,0 -0.568,0.026 -0.872,0.08c-0.305,0.053 -0.595,0.026 -0.872,-0.08l0,-2.549c0.277,0 0.567,0.026 0.872,0.079c0.304,0.054 0.595,0.133 0.872,0.239l0,2.231Zm10.547,-2.071c-0.056,0.318 -0.07,0.664 -0.042,1.035c0.028,0.372 0.042,0.717 0.042,1.036c-0.277,0.106 -0.568,0.106 -0.872,0c-0.305,-0.106 -0.595,-0.159 -0.872,-0.159l0,-1.912l1.744,0Zm183.864,1.912l0,-2.072l-3.903,0l0,2.072l3.903,0Zm-19.516,-0.16l0,-3.664l-1.827,0l0,3.664l1.827,0Zm-3.488,0l0,-3.664l-1.827,0l0,3.664l1.827,0Zm6.81,0l0,-3.664l-1.744,0l0,3.664l1.744,0Zm-184.612,-2.389c0.277,0 0.54,-0.027 0.789,-0.08c0.249,-0.053 0.512,-0.027 0.789,0.08l0,2.23c-0.277,0 -0.54,0.027 -0.789,0.08c-0.249,0.053 -0.512,0.026 -0.789,-0.08l0,-2.23Zm-62.284,1.752l0,-2.23l-0.665,0l0,2.23l0.665,0Zm-2.16,0l0,-2.23l-0.664,0l0,2.23l0.664,0Zm1.163,0l0,-2.23l-0.664,0l0,2.23l0.664,0Zm2.076,0c0,-0.213 0.014,-0.558 0.042,-1.036c0.027,-0.478 0.041,-0.876 0.041,-1.194l-0.664,0l0,2.23l0.581,0Zm-5.647,-0.637l0,-2.231l-5.232,0l0,2.231l5.232,0Zm137.524,-0.319c0,-1.062 -0.013,-2.098 -0.041,-3.107c-0.028,-1.009 -0.014,-1.991 0.041,-2.947c0.554,0 1.094,-0.027 1.62,-0.08c0.526,-0.053 1.066,-0.026 1.619,0.08l0,3.027c0,0.956 -0.027,1.965 -0.083,3.027c-0.498,0 -1.01,0.027 -1.536,0.08c-0.526,0.053 -1.066,0.026 -1.62,-0.08Zm4.568,-6.054c0.554,0 1.093,-0.027 1.619,-0.08c0.526,-0.053 1.066,-0.026 1.62,0.08l0,6.054c-0.554,0 -1.094,0.027 -1.62,0.08c-0.526,0.053 -1.065,0.026 -1.619,-0.08l0,-6.054Zm-9.218,0c0.554,0 1.093,-0.027 1.619,-0.08c0.526,-0.053 1.066,-0.026 1.62,0.08c0,1.062 0.014,2.071 0.041,3.027c0.028,0.956 0.014,1.965 -0.041,3.027c-0.554,0 -1.094,0.027 -1.62,0.08c-0.526,0.053 -1.065,0.026 -1.619,-0.08l0,-6.054Zm-145.414,0.478c0,0.85 0.014,1.726 0.042,2.629c0.027,0.903 0.014,1.779 -0.042,2.628l-1.744,0c0,-0.849 -0.014,-1.725 -0.041,-2.628c-0.028,-0.903 -0.014,-1.779 0.041,-2.629l1.744,0Zm179.878,4.939l0,-3.983l-1.329,0l0,3.983l1.329,0Zm-2.159,0l0,-3.983l-1.412,0l0,3.983l1.412,0Zm-10.049,0c0.056,-0.638 0.069,-1.301 0.042,-1.992c-0.028,-0.69 -0.042,-1.354 -0.042,-1.991l-1.329,0l0,3.983l1.329,0Zm4.402,0c0.055,-0.638 0.069,-1.301 0.041,-1.992c-0.027,-0.69 -0.041,-1.354 -0.041,-1.991l-1.246,0l0,3.983l1.246,0Zm37.952,-4.302l1.661,0l0,4.302l-1.661,-0.159l0,-4.143Zm-34.547,4.302l0,-3.983l-1.412,0l0,3.983l1.412,0Zm39.779,-4.302l1.578,0c0,0.772 0.013,1.489 0.041,2.151c0.028,0.662 0.014,1.379 -0.041,2.151l-1.578,-0.159l0,-4.143Zm-114.272,4.302l0,-1.593l-1.578,0l0,1.593l1.578,0Zm68.845,0c0.056,-0.638 0.07,-1.301 0.042,-1.992c-0.028,-0.69 -0.042,-1.354 -0.042,-1.991l-1.245,0l0,3.983l1.245,0Zm-71.17,-0.159l0,-1.912l-1.744,0l0,1.912l1.744,0Zm127.143,-3.983l0,3.823l-1.079,0.16l0,-3.983l1.079,0Zm-44.429,0.159l-0.581,3.505l0,-3.505l0.581,0Zm124.32,0.637l1.412,0l0,2.709c-0.277,0 -0.513,0.026 -0.706,0.079c-0.194,0.053 -0.429,0.027 -0.706,-0.079l0,-2.709Zm-1.993,2.709c0,-0.452 -0.014,-0.903 -0.042,-1.355c-0.027,-0.451 -0.014,-0.902 0.042,-1.354l1.328,0c0,0.452 0.014,0.903 0.042,1.354c0.028,0.452 0.014,0.903 -0.042,1.355c-0.221,0 -0.442,0.026 -0.664,0.079c-0.221,0.053 -0.443,0.027 -0.664,-0.079Zm-11.212,-3.665c0.443,-0.318 0.886,-0.212 1.329,0.319c0.443,0.531 0.526,1.274 0.249,2.23c-0.11,0.744 -0.415,1.142 -0.913,1.195c-0.498,0.053 -0.858,-0.239 -1.08,-0.876c-0.11,-1.381 0.028,-2.337 0.415,-2.868Zm-198.646,3.665l0,-1.912l-1.744,0l0,1.912l1.744,0Zm-5.73,0l0,-2.39l-1.578,0l0,2.39l1.578,0Zm193.913,-0.478l0,-2.231l-5.73,0l0,2.231l5.73,0Zm-200.307,-2.709c0.276,0.213 0.567,0.239 0.872,0.08c0.304,-0.16 0.567,-0.08 0.788,0.239c0,0.318 0.014,0.717 0.042,1.195c0.028,0.478 0.042,0.876 0.042,1.195c-0.277,-0.213 -0.568,-0.319 -0.872,-0.319l-0.872,0l0,-2.39Zm152.14,-1.274l0,3.505l-1.163,0l0,-3.505l1.163,0Zm7.557,3.505l0,-2.549l-1.661,0l0,2.549l1.661,0Zm-5.564,-3.505l0,3.186l-1.163,0l0,-3.186l1.163,0Zm-245.484,-2.072l0,5.258l-1.827,0l0,-5.258l1.827,0Zm-3.156,0l0,5.258l-1.744,0c0,-0.85 -0.014,-1.726 -0.041,-2.629c-0.028,-0.903 -0.014,-1.779 0.041,-2.629l1.744,0Zm250.55,2.072l0,3.186l-0.913,0l0,-3.186l0.913,0Zm-6.062,0l0,3.186l-0.997,0l0,-3.186l0.997,0Zm-1.91,0l0,3.186l-1.08,0l0,-3.186l1.08,0Zm-236.183,-2.072c0,0.85 0.013,1.726 0.041,2.629c0.028,0.903 0.014,1.779 -0.041,2.629l-1.744,0c0,-0.85 -0.014,-1.726 -0.042,-2.629c-0.028,-0.903 -0.014,-1.779 0.042,-2.629l1.744,0Zm-9.634,0l0,5.258l-1.827,0l0,-5.258l1.827,0Zm-3.155,-0.318c0,0.85 0.013,1.726 0.041,2.629c0.028,0.902 0.014,1.779 -0.041,2.628l-1.744,0c0,-0.849 -0.014,-1.726 -0.042,-2.628c-0.028,-0.903 -0.014,-1.779 0.042,-2.629l1.744,0Zm27.488,5.257l0,-2.389l-1.163,0l0,2.389l1.163,0Zm3.239,-2.071c0.941,-0.637 1.245,-0.053 0.913,1.753c-0.941,0.637 -1.246,0.053 -0.913,-1.753Zm89.44,-0.159c-0.055,0.212 -0.069,0.451 -0.041,0.717c0.027,0.265 0.041,0.531 0.041,0.796c0,0.266 -0.041,0.452 -0.124,0.558c-0.083,0.106 -0.263,0.053 -0.54,-0.159c-0.166,0 -0.318,-0.053 -0.457,-0.16c-0.138,-0.106 -0.291,-0.159 -0.457,-0.159l0,-1.593l1.578,0Zm-92.015,0.159c0.332,0 0.678,-0.026 1.038,-0.079c0.36,-0.054 0.734,-0.027 1.121,0.079l0,1.753c-0.387,0 -0.761,0.026 -1.121,0.079c-0.36,0.053 -0.706,0.027 -1.038,-0.079l0,-1.753Zm-2.325,1.753c-0.319,0 -0.652,0.026 -0.997,0.079c-0.345,0.053 -0.677,0.027 -0.996,-0.079l0,-1.753c0.319,0 0.651,-0.026 0.996,-0.079c0.345,-0.054 0.678,-0.027 0.997,0.079l0,1.753Zm89.69,-0.478c-0.277,-0.213 -0.568,-0.292 -0.872,-0.239c-0.305,0.053 -0.595,0.026 -0.872,-0.08l0,-1.593l1.744,0l0,1.912Zm-9.8,-1.434c-0.055,-0.744 -0.055,-1.434 0,-2.071l1.578,0l0,2.39c-0.277,0 -0.54,-0.054 -0.789,-0.16c-0.249,-0.106 -0.512,-0.159 -0.789,-0.159Zm-71.586,0.159l0,-2.549l-0.664,0l0,2.549l0.664,0Zm269.817,0l0,-2.23l-2.242,0l0,2.23l2.242,0Zm-4.567,0l0,-2.549l-0.665,0l0,2.549l0.665,0Zm-1.495,0l0,-2.549l-2.408,0c-0.056,0.956 -0.056,1.806 0,2.549l2.408,0Zm3.322,0l0,-2.549l-0.665,0l0,2.549l0.665,0Zm-263.838,0c0.056,-0.956 0.056,-1.805 0,-2.549l-0.581,0c-0.055,0.744 -0.055,1.593 0,2.549l0.581,0Zm-2.076,0l0,-2.549l-0.664,0l0,2.549l0.664,0Zm0.332,-2.549c0.333,-0.425 0.568,-0.504 0.706,-0.239c0.139,0.266 0.208,0.637 0.208,1.115c0,0.478 -0.069,0.903 -0.208,1.275c-0.138,0.372 -0.318,0.451 -0.54,0.239c-0.221,-0.213 -0.304,-0.558 -0.249,-1.036c0.056,-0.478 0.083,-0.929 0.083,-1.354Zm289.25,-0.159l1.412,0l0,2.549c-0.277,0 -0.513,0.026 -0.706,0.08c-0.194,0.053 -0.429,0.026 -0.706,-0.08l0,-2.549Zm-1.993,2.549c0,-0.425 -0.014,-0.85 -0.042,-1.275c-0.027,-0.425 -0.014,-0.849 0.042,-1.274l1.328,0c0,0.425 0.014,0.849 0.042,1.274c0.028,0.425 0.014,0.85 -0.042,1.275c-0.221,0 -0.442,0.026 -0.664,0.08c-0.221,0.053 -0.443,0.026 -0.664,-0.08Zm-219.657,-2.549c0.277,0 0.567,0.053 0.872,0.159c0.304,0.106 0.595,0.106 0.872,0l0,2.39c-0.277,-0.106 -0.568,-0.186 -0.872,-0.239c-0.305,-0.053 -0.595,-0.027 -0.872,0.08l0,-2.39Zm196.487,0.478c0.332,-0.213 0.498,-0.053 0.498,0.478l0,1.434c-0.387,0.212 -0.567,0.079 -0.54,-0.399c0.028,-0.478 0.042,-0.982 0.042,-1.513Zm-201.221,1.115l0,-1.195c0,-0.478 -0.027,-0.876 -0.083,-1.195c0.277,0 0.568,0.053 0.872,0.159c0.305,0.107 0.595,0.16 0.872,0.16l0,2.39c-0.277,-0.213 -0.567,-0.239 -0.872,-0.08c-0.304,0.159 -0.567,0.08 -0.789,-0.239Zm96.168,0l0,-3.824l-1.412,0l0,3.824l1.412,0Zm4.401,0l0,-3.824l-1.329,0l0,3.824l1.329,0Zm-2.159,0l0,-3.824l-1.412,0l0,3.824l1.412,0Zm3.903,0l0.498,-3.186l0,-0.638l-1.328,0l0,3.824l0.83,0Zm-169.082,-0.159l0,-2.231l-6.062,0l0,2.231l6.062,0Zm83.794,-0.319l0,-1.912l-1.744,0l0,1.912l1.744,0Zm129.468,-3.664l0,3.505l-1.079,0l0,-3.505l1.079,0Zm-133.704,1.274c0.277,0.106 0.568,0.186 0.872,0.239c0.305,0.053 0.595,0.08 0.872,0.08l0,1.593c-0.277,0 -0.567,0.027 -0.872,0.08c-0.304,0.053 -0.595,0.026 -0.872,-0.08l0,-1.912Zm149.317,1.593l0,-2.549l-5.564,0l0,0.956c0.609,0.106 1.246,0.133 1.91,0.08c0.664,-0.053 1.329,-0.08 1.993,-0.08l0,1.593l1.661,0Zm43.35,-1.115c-0.387,0 -0.761,0.027 -1.121,0.08c-0.36,0.053 -0.733,0.026 -1.121,-0.08l0,-2.071c0.388,0 0.761,-0.027 1.121,-0.08c0.36,-0.053 0.734,-0.026 1.121,0.08l0,2.071Zm-198.231,-0.159c-0.055,-0.744 -0.055,-1.434 0,-2.071c0.277,0 0.54,-0.027 0.789,-0.08c0.249,-0.053 0.512,-0.027 0.789,0.08l0,2.23c-0.277,0.106 -0.54,0.133 -0.789,0.08c-0.249,-0.053 -0.512,-0.133 -0.789,-0.239Zm189.927,-1.912c0.332,0 0.678,-0.027 1.038,-0.08c0.36,-0.053 0.706,-0.026 1.038,0.08l0,2.071c-0.332,0 -0.678,0.027 -1.038,0.08c-0.36,0.053 -0.706,0.026 -1.038,-0.08l0,-2.071Zm5.398,2.071l0,-2.071l-1.163,0l0,2.071l1.163,0Zm-183.2,-2.23c-0.055,0.212 -0.069,0.451 -0.042,0.717c0.028,0.265 0.042,0.531 0.042,0.796c0,0.266 -0.042,0.452 -0.125,0.558c-0.083,0.106 -0.263,0.053 -0.539,-0.159c-0.222,0.106 -0.402,0.106 -0.54,0c-0.139,-0.107 -0.319,-0.213 -0.54,-0.319l0,-1.912c0.277,0 0.567,0.027 0.872,0.08c0.304,0.053 0.595,0.132 0.872,0.239Zm2.325,2.071c-0.055,-0.319 -0.055,-0.664 0,-1.036c0.056,-0.371 0,-0.664 -0.166,-0.876l-1.412,0c-0.11,0.637 -0.11,1.275 0,1.912l1.578,0Zm113.358,0l0,-4.142l-1.661,0l0,4.142l1.661,0Zm-5.232,0l0,-4.142l-1.661,0l0,4.142l1.661,0Zm-209.11,-5.576c0,0.849 0.014,1.752 0.042,2.708c0.027,0.956 0.014,1.859 -0.042,2.709l-1.744,0c0,-0.85 -0.014,-1.753 -0.041,-2.709c-0.028,-0.956 -0.014,-1.859 0.041,-2.708l1.744,0Zm307.105,5.257l0,-2.708l-1.412,0l0,2.708l1.412,0Zm-2.077,0c0.056,-0.531 0.07,-0.982 0.042,-1.354c-0.028,-0.372 -0.042,-0.823 -0.042,-1.354l-1.328,0c-0.056,0.531 -0.069,0.982 -0.042,1.354c0.028,0.372 0.042,0.823 0.042,1.354l1.328,0Zm-221.733,-0.159l0,-2.39l-1.577,0l0,2.39l1.577,0Zm74.576,0l0,-6.532l-3.239,0l0,6.532l3.239,0Zm-9.052,-0.319c0.055,-0.956 0.069,-1.938 0.041,-2.947c-0.027,-1.009 -0.041,-1.992 -0.041,-2.948l-3.156,0c-0.055,0.956 -0.083,1.939 -0.083,2.948l0,2.947l3.239,0Zm-142.175,0l0,-1.912l-1.993,0l0,1.912l1.993,0Zm5.896,0l0,-2.23l-5.232,0l0,2.23l5.232,0Zm140.68,0c0.056,-1.062 0.083,-2.098 0.083,-3.106l0,-3.107l-3.239,0c-0.055,1.062 -0.069,2.097 -0.041,3.107c0.028,1.009 0.041,2.044 0.041,3.106l3.156,0Zm-61.122,-2.23c0.277,0 0.568,0.053 0.872,0.159c0.305,0.106 0.595,0.106 0.872,0l0,1.593c-0.277,0 -0.567,0.027 -0.872,0.08c-0.304,0.053 -0.595,0.026 -0.872,-0.08l0,-1.752Zm-111.281,-4.461c0,0.956 0.013,1.885 0.041,2.788c0.028,0.903 0.014,1.779 -0.041,2.629l-1.744,0c0,-0.85 -0.014,-1.726 -0.042,-2.629c-0.028,-0.903 -0.014,-1.832 0.042,-2.788l1.744,0Zm9.55,0l0,5.417l-1.827,0l0,-5.417l1.827,0Zm-6.395,0l0,5.417l-1.827,0l0,-5.417l1.827,0Zm9.634,0c0,0.956 0.013,1.885 0.041,2.788c0.028,0.903 0.014,1.779 -0.041,2.629l-1.744,0c0,-0.85 -0.014,-1.726 -0.042,-2.629c-0.028,-0.903 -0.014,-1.832 0.042,-2.788l1.744,0Zm-6.395,0l0,5.417l-1.744,0c0,-0.85 -0.014,-1.726 -0.041,-2.629c-0.028,-0.903 -0.014,-1.832 0.041,-2.788l1.744,0Zm29.398,2.39c0.443,-0.213 0.665,0 0.665,0.637l0,1.752c-0.277,0.319 -0.485,0.399 -0.623,0.239c-0.138,-0.159 -0.235,-0.398 -0.291,-0.717c-0.055,-0.318 -0.055,-0.663 0,-1.035c0.056,-0.372 0.139,-0.664 0.249,-0.876Zm84.375,2.549l0,-1.912l-1.578,0c-0.11,0.637 -0.11,1.274 0,1.912l1.578,0Zm-82.797,-0.16c0.056,-0.743 0.056,-1.593 0,-2.549l-0.581,0c-0.055,0.956 -0.055,1.806 0,2.549l0.581,0Zm-2.076,0l0,-2.549l-0.664,0l0,2.549l0.664,0Zm-1.163,0c-0.055,-0.531 -0.041,-1.141 0.042,-1.832c0.083,-0.69 -0.069,-0.876 -0.457,-0.557c-0.277,0.212 -0.36,0.584 -0.249,1.115c0.111,0.531 0.111,0.956 0,1.274l0.664,0Zm162.771,-0.159l0,-3.664c-0.498,-0.106 -0.969,-0.106 -1.412,0l0,3.664l1.412,0Zm2.159,0l0,-3.664l-1.329,0l0,3.664l1.329,0Zm2.242,0l0,-3.664l-1.328,0l0,3.664l1.328,0Zm-6.643,0l0,-3.664c-0.499,-0.106 -0.969,-0.106 -1.412,0l0,3.664l1.412,0Zm101.939,0c0.36,0 0.733,-0.053 1.121,-0.159c0.221,-0.213 0.277,-0.584 0.166,-1.115c-0.111,-0.532 -0.111,-0.956 0,-1.275l-2.408,0c-0.056,0.743 -0.056,1.593 0,2.549l1.121,0Zm-178.757,-0.159l0,-1.912c-0.277,0 -0.568,-0.027 -0.872,-0.08c-0.305,-0.053 -0.595,-0.133 -0.872,-0.239l0,2.231l1.744,0Zm186.106,-0.16l0,-2.23l-5.066,0l0,2.23l5.066,0Zm-48.914,-3.027c0.941,0 1.869,-0.026 2.782,-0.079c0.914,-0.053 1.841,-0.027 2.782,0.079l0,2.709c-0.941,0 -1.868,0.026 -2.782,0.079c-0.913,0.054 -1.841,0.027 -2.782,-0.079l0,-2.709Zm-1.993,-0.637l0,3.346l-1.163,0l0,-3.346l1.163,0Zm-137.69,3.346l0,-1.593c-0.277,-0.107 -0.54,-0.213 -0.789,-0.319c-0.25,-0.106 -0.512,-0.106 -0.789,0l0,1.912l1.578,0Zm129.634,-3.346l0,3.346l-1.079,0l0,-3.346l1.079,0Zm3.987,0l0,3.027l-1.08,0l0,-3.027l1.08,0Zm1.91,0l0,3.027l-0.997,0l0,-3.027l0.997,0Zm-3.903,0l0,3.027l-0.997,0l0,-3.027l0.997,0Zm-146.078,0.319c0.276,0 0.567,0.026 0.872,0.079c0.304,0.053 0.595,0.08 0.872,0.08l0,2.39c-0.277,-0.106 -0.568,-0.106 -0.872,0c-0.305,0.106 -0.596,0 -0.872,-0.319l0,-2.23Zm-74.908,2.549l0,-2.231l-2.159,0l0,2.231l2.159,0Zm1.495,0l0,-2.231l-1.163,0l0,2.231l1.163,0Zm4.235,0l0,-2.231l-3.571,0l0,2.231l3.571,0Zm292.488,-0.159c0.056,-0.532 0.07,-0.983 0.042,-1.355c-0.028,-0.371 -0.042,-0.823 -0.042,-1.354l-1.328,0c-0.056,0.531 -0.069,0.983 -0.042,1.354c0.028,0.372 0.042,0.823 0.042,1.355l1.328,0Zm2.077,0l0,-2.709l-1.412,0l0,2.709l1.412,0Zm-227.879,-2.868c0.277,-0.106 0.568,-0.133 0.872,-0.08c0.305,0.053 0.595,0.133 0.872,0.239l0,2.39c-0.277,0 -0.567,-0.027 -0.872,-0.08c-0.304,-0.053 -0.595,-0.133 -0.872,-0.239l0,-2.23Zm190.425,-44.45l44.261,0l0,29.474l-44.261,0l0,17.047l-24.914,0l0,-64.684l24.914,0l0,18.163Zm-168.667,46.202c-0.277,0 -0.54,-0.026 -0.789,-0.079c-0.249,-0.053 -0.512,-0.08 -0.789,-0.08c-0.11,-0.637 -0.11,-1.275 0,-1.912c0.277,-0.106 0.54,-0.106 0.789,0c0.249,0.106 0.512,0.213 0.789,0.319l0,1.752Zm-14.45,-3.983c0.277,0.106 0.54,0.186 0.789,0.239c0.249,0.053 0.512,0.08 0.789,0.08l0,2.39c-0.277,-0.106 -0.54,-0.133 -0.789,-0.08c-0.249,0.053 -0.512,-0.026 -0.789,-0.239l0,-2.39Zm7.308,2.39l0,-1.593c-0.277,-0.213 -0.54,-0.319 -0.789,-0.319l-0.789,0l0,1.912l1.578,0Zm-8.055,-0.159c-0.277,-0.106 -0.568,-0.186 -0.872,-0.239c-0.305,-0.053 -0.595,-0.08 -0.872,-0.08l0,-2.549c0.553,0.319 1.135,0.478 1.744,0.478l0,2.39Zm-78.645,-2.39c0.941,0 1.855,-0.027 2.741,-0.08c0.886,-0.053 1.771,-0.026 2.657,0.08l0,2.23c-0.886,0 -1.771,0.027 -2.657,0.08c-0.886,0.053 -1.8,0.027 -2.741,-0.08l0,-2.23Zm-0.332,2.23c-0.373,0 -0.733,0.027 -1.08,0.08c-0.347,0.053 -0.706,0.027 -1.079,-0.08l0,-2.23c0.693,-0.106 1.412,-0.106 2.159,0l0,2.23Zm176.307,-0.159l0,-0.478l0.083,0l-0.083,0.478Zm33.717,-0.319c0.055,-0.743 0.069,-1.46 0.041,-2.15c-0.028,-0.691 -0.041,-1.408 -0.041,-2.151c-0.277,-0.106 -0.54,-0.133 -0.789,-0.08c-0.25,0.053 -0.513,0.08 -0.789,0.08l0,4.301l1.578,0Zm-2.492,-0.159l0,-4.142c-0.277,-0.106 -0.554,-0.133 -0.83,-0.08c-0.277,0.053 -0.554,0.08 -0.831,0.08l0,4.142l1.661,0Zm-5.232,0l0,-4.142c-0.277,-0.106 -0.553,-0.133 -0.83,-0.08c-0.277,0.053 -0.554,0.08 -0.831,0.08l0,4.142l1.661,0Zm-129.801,-0.796l0,-1.036c0,-0.478 -0.027,-0.876 -0.083,-1.195c0.277,0 0.568,0.027 0.872,0.08c0.305,0.053 0.595,0.133 0.872,0.239l0,2.23c-0.277,-0.106 -0.567,-0.079 -0.872,0.08c-0.304,0.159 -0.567,0.026 -0.789,-0.398Zm19.35,0.159c-0.277,0 -0.568,-0.053 -0.872,-0.159c-0.305,-0.107 -0.595,-0.16 -0.872,-0.16l0,-1.912c0.277,0 0.567,0.054 0.872,0.16c0.304,0.106 0.595,0.159 0.872,0.159l0,1.912Zm-2.325,-0.478c-0.277,0 -0.568,-0.053 -0.872,-0.159c-0.305,-0.107 -0.595,-0.16 -0.872,-0.16l0,-1.912c0.277,0.107 0.567,0.213 0.872,0.319c0.304,0.106 0.595,0.106 0.872,0l0,1.912Zm137.358,-3.346l0,3.187l-0.997,0l0,-3.187l0.997,0Zm-5.896,0l0,3.187l-0.997,0l0,-3.187l0.997,0Zm-227.796,-2.071c0,0.825 0.014,1.675 0.042,2.552c0.027,0.876 0.014,1.778 -0.042,2.706l-1.744,0c0,-0.928 -0.014,-1.83 -0.041,-2.706c-0.028,-0.877 -0.014,-1.727 0.041,-2.552l1.744,0Zm231.699,2.071l0,3.187l-0.997,0l0,-3.187l0.997,0Zm-5.897,0l0,3.187l-0.913,0l0,-3.187l0.913,0Zm3.987,0l0,3.187l-1.08,0l0,-3.187l1.08,0Zm-135.947,2.868c-0.277,-0.212 -0.54,-0.292 -0.789,-0.239c-0.249,0.053 -0.512,0.027 -0.789,-0.08l0,-1.752c0.277,0 0.54,0.026 0.789,0.079c0.249,0.054 0.512,0.08 0.789,0.08l0,1.912Zm-5.73,-2.708c-0.055,0.212 -0.069,0.451 -0.041,0.716c0.027,0.266 0.041,0.532 0.041,0.797c0,0.266 -0.041,0.478 -0.124,0.637c-0.084,0.16 -0.263,0.133 -0.54,-0.079c-0.111,-0.213 -0.263,-0.239 -0.457,-0.08c-0.194,0.159 -0.346,0.08 -0.457,-0.239l0,-2.39c0.277,0.106 0.54,0.186 0.789,0.239c0.249,0.053 0.512,0.186 0.789,0.399Zm-79.807,1.752l0,-2.39l-1.163,0l0,2.39l1.163,0Zm4.235,0l0,-2.071l-3.571,0l0,2.071l3.571,0Zm73.247,-0.159c-0.277,-0.106 -0.568,-0.186 -0.872,-0.239c-0.305,-0.053 -0.595,-0.08 -0.872,-0.08l0,-2.549c0.277,0 0.567,0.027 0.872,0.08c0.304,0.053 0.595,0.186 0.872,0.398l0,2.39Zm-79.143,-1.912l0,1.912c-0.319,-0.106 -0.652,-0.133 -0.997,-0.08c-0.345,0.053 -0.677,0.027 -0.996,-0.08l0,-1.752l1.993,0Zm76.818,1.274c-0.277,0 -0.568,-0.026 -0.872,-0.079c-0.305,-0.053 -0.596,-0.08 -0.872,-0.08l0,-2.549c0.276,0.106 0.567,0.106 0.872,0c0.304,-0.106 0.567,0.053 0.788,0.478c0.056,0.319 0.084,0.717 0.084,1.195l0,1.035Zm-101.151,-1.274l0,-1.593l-3.488,0l0,1.593l3.488,0Zm30.229,-0.956l0,-2.231l-6.062,0l0,2.231l6.062,0Zm73.994,-2.868c0.277,0.213 0.54,0.292 0.789,0.239c0.249,-0.053 0.512,-0.026 0.789,0.08l0,2.549c-0.277,-0.212 -0.54,-0.292 -0.789,-0.239c-0.249,0.053 -0.512,0.027 -0.789,-0.08l0,-2.549Zm125.234,0.797l0,-4.461l-1.744,0l0,4.461l1.744,0Zm-131.67,-2.39c-0.305,0 -0.595,-0.106 -0.872,-0.319l0,1.195c0,0.478 0.028,0.877 0.083,1.195c0.277,0 0.554,0.053 0.831,0.159c0.276,0.107 0.553,0.16 0.83,0.16l0,-2.39l-0.872,0Zm135.158,-2.071l0.789,0c0.249,0 0.512,0.053 0.789,0.159c0,0.637 0.013,1.301 0.041,1.992c0.028,0.69 0.014,1.354 -0.041,1.991c-0.277,0 -0.54,0.027 -0.789,0.08c-0.25,0.053 -0.513,0.026 -0.789,-0.08l0,-4.142Zm-207.2,0.796c0.443,-0.212 0.623,0.027 0.539,0.717c-0.083,0.691 -0.096,1.302 -0.041,1.833c-0.443,0.212 -0.623,-0.027 -0.54,-0.717c0.083,-0.691 0.097,-1.301 0.042,-1.833Zm-1.246,2.55l0,-2.55l-2.159,0l0,2.55l2.159,0Zm0.415,-2.231c0.388,-0.212 0.568,-0.053 0.54,0.478c-0.028,0.531 -0.042,1.009 -0.042,1.434c-0.332,0.212 -0.484,0.053 -0.456,-0.478c0.027,-0.531 0.014,-1.009 -0.042,-1.434Zm5.315,1.912l0,-1.912l-3.571,0l0,1.912l3.571,0Zm-30.229,-0.637l0,-4.302l-3.488,0l0,4.302l3.488,0Zm103.144,-2.709c0.332,0.106 0.443,0.478 0.332,1.115c-0.111,0.638 -0.111,1.116 0,1.434c-0.277,-0.212 -0.568,-0.265 -0.872,-0.159c-0.305,0.106 -0.595,0 -0.872,-0.319l0,-2.389c0.387,0 0.858,0.106 1.412,0.318Zm-88.611,-2.868l0,5.258l-1.91,0l0,-5.258l1.91,0Zm3.156,0c0,0.85 0.014,1.726 0.042,2.629c0.027,0.903 0.014,1.779 -0.042,2.629l-1.744,0c0,-0.85 -0.014,-1.726 -0.041,-2.629c-0.028,-0.903 -0.014,-1.779 0.041,-2.629l1.744,0Zm-12.789,0l0,5.258l-1.744,0c0,-0.85 -0.014,-1.726 -0.041,-2.629c-0.028,-0.903 -0.014,-1.779 0.041,-2.629l1.744,0Zm6.395,0c0,0.85 0.013,1.726 0.041,2.629c0.028,0.903 0.014,1.779 -0.041,2.629l-1.744,0c0,-0.85 -0.014,-1.726 -0.042,-2.629c-0.028,-0.903 -0.014,-1.779 0.042,-2.629l1.744,0Zm-3.239,0l0,5.258l-1.827,0l0,-5.258l1.827,0Zm93.095,4.78c-0.277,0 -0.568,-0.053 -0.872,-0.159c-0.305,-0.106 -0.596,-0.16 -0.872,-0.16l0,-2.23c0.276,-0.106 0.567,-0.106 0.872,0c0.304,0.106 0.595,0.159 0.872,0.159l0,2.39Zm-2.492,-0.797l0,-2.23c-0.277,0.106 -0.554,0.027 -0.83,-0.239c-0.277,-0.266 -0.582,-0.345 -0.914,-0.239c0,0.212 0.014,0.584 0.042,1.115c0.027,0.531 0.041,0.903 0.041,1.115c0.222,0.319 0.485,0.478 0.789,0.478l0.872,0Zm-68.43,-0.955c-0.345,0 -0.705,0.026 -1.079,0.079c-0.375,0.053 -0.735,0.027 -1.08,-0.079l0,-1.753c0.345,0 0.705,-0.027 1.08,-0.08c0.374,-0.053 0.734,-0.026 1.079,0.08l0,1.753Zm-7.889,-1.753c0.319,0 0.651,-0.027 0.996,-0.08c0.345,-0.053 0.678,-0.026 0.997,0.08l0,1.753c-0.319,0 -0.652,0.026 -0.997,0.079c-0.345,0.053 -0.677,0.027 -0.996,-0.079l0,-1.753Zm3.82,0c0.221,1.168 0.18,1.779 -0.125,1.832c-0.304,0.053 -0.65,0.027 -1.038,-0.079l0,-1.753l1.163,0Zm4.235,-1.275l0,-2.23l-2.325,0l0,2.23l2.325,0Zm-3.156,0l0,-2.23l-4.899,0l0,2.23l4.899,0Zm2.99,-3.186l0,-2.23l-3.571,0l0,2.23l3.571,0Zm-25.329,-5.417l0,5.417l-1.744,0c0,-0.85 -0.014,-1.726 -0.041,-2.629c-0.028,-0.902 -0.014,-1.832 0.041,-2.788l1.744,0Zm9.633,0l0,5.417l-1.91,0l0,-5.417l1.91,0Zm-6.477,0l0,5.417l-1.827,0l0,-5.417l1.827,0Zm9.633,-0.318c0,0.956 0.014,1.885 0.042,2.788c0.027,0.902 0.014,1.779 -0.042,2.628l-1.744,0c0,-0.849 -0.014,-1.726 -0.041,-2.628c-0.028,-0.903 -0.014,-1.832 0.041,-2.788l1.744,0Zm-6.394,0c0,0.956 0.013,1.885 0.041,2.788c0.028,0.902 0.014,1.779 -0.041,2.628l-1.744,0c0,-0.849 -0.014,-1.726 -0.042,-2.628c-0.028,-0.903 -0.014,-1.832 0.042,-2.788l1.744,0Zm18.934,2.549l0,-2.231l-5.232,0l0,2.231l5.232,0Zm0.166,-3.187c-0.402,0 -0.79,0.027 -1.162,0.08c-0.373,0.053 -0.761,0.026 -1.163,-0.08l0,-2.071c0.402,0 0.79,-0.026 1.163,-0.08c0.372,-0.053 0.76,-0.026 1.162,0.08l0,2.071Zm-8.055,-2.071c0.319,0 0.651,-0.026 0.996,-0.08c0.345,-0.053 0.678,-0.026 0.997,0.08l0,1.753c-0.319,0 -0.652,0.026 -0.997,0.079c-0.345,0.053 -0.677,0.027 -0.996,-0.079l0,-1.753Zm4.318,0c0.332,-0.212 0.498,-0.08 0.498,0.398l0,1.355c-0.387,0.212 -0.567,0.079 -0.539,-0.399c0.027,-0.478 0.041,-0.929 0.041,-1.354Zm-1.246,1.753c-0.332,0.212 -0.484,0.079 -0.456,-0.399c0.027,-0.478 0.014,-0.929 -0.042,-1.354c0.388,-0.212 0.568,-0.08 0.54,0.398c-0.028,0.478 -0.042,0.93 -0.042,1.355Zm0.416,-1.753c0.387,-0.212 0.567,-0.08 0.54,0.398c-0.028,0.478 -0.042,0.93 -0.042,1.355c-0.388,0.212 -0.567,0.079 -0.54,-0.399c0.028,-0.478 0.042,-0.929 0.042,-1.354Zm0.332,-3.186c0.277,1.168 0.249,1.779 -0.083,1.832c-0.332,0.053 -0.692,0.08 -1.08,0.08l0,-1.912l1.163,0Zm4.069,1.912l0,-1.912c-0.345,-0.106 -0.705,-0.133 -1.079,-0.08c-0.375,0.053 -0.735,0.08 -1.08,0.08l0,1.912l2.159,0Zm-5.896,0l0,-1.912c-0.319,-0.106 -0.652,-0.133 -0.997,-0.08c-0.345,0.053 -0.677,0.08 -0.996,0.08l0,1.912l1.993,0Zm2.906,-3.187l0,-1.912l-4.899,0l0,1.912l4.899,0Zm2.99,0l0,-1.912l-2.159,0l0,1.912l2.159,0Z"/></svg>